<?xml version="1.0" encoding="UTF-8"?>
<!DOCTYPE svg PUBLIC "-//W3C//DTD SVG 1.1//EN" "http://www.w3.org/Graphics/SVG/1.1/DTD/svg11.dtd">
<svg xmlns="http://www.w3.org/2000/svg" version="1.1" width="388px" height="388px" style="shape-rendering:geometricPrecision; text-rendering:geometricPrecision; image-rendering:optimizeQuality; fill-rule:evenodd; clip-rule:evenodd" xmlns:xlink="http://www.w3.org/1999/xlink">
<g><path style="opacity:0.545" fill="#83bea0" d="M 324.5,51.5 C 322.852,49.44 321.352,47.1067 320,44.5C 319.181,40.2061 317.681,36.2061 315.5,32.5C 314.635,31.4173 313.635,31.2506 312.5,32C 309.877,39.8989 308.377,48.0656 308,56.5C 306.915,58.373 305.582,60.0397 304,61.5C 303.824,64.8818 303.324,68.2152 302.5,71.5C 301.85,73.1836 300.85,74.5169 299.5,75.5C 300.888,67.6132 303.055,59.9465 306,52.5C 306.27,43.4755 308.436,34.9755 312.5,27C 313.996,26.4926 315.163,26.9926 316,28.5C 319.135,36.0747 321.969,43.7414 324.5,51.5 Z"/></g>
<g><path style="opacity:1" fill="#31a574" d="M 324.5,51.5 C 325.167,51.5 325.5,51.8333 325.5,52.5C 323.066,53.354 323.233,54.354 326,55.5C 327.978,59.7766 329.645,64.11 331,68.5C 333.699,71.922 336.032,75.5887 338,79.5C 337.516,84.1964 339.183,87.8631 343,90.5C 345.207,94.2504 346.873,98.2504 348,102.5C 348.671,103.252 349.504,103.586 350.5,103.5C 350.331,108.158 351.831,112.158 355,115.5C 356.074,119.305 357.408,122.971 359,126.5C 359.671,127.252 360.504,127.586 361.5,127.5C 361.431,132.185 362.931,136.185 366,139.5C 366.497,141.81 366.663,144.143 366.5,146.5C 362.671,148.239 358.671,149.739 354.5,151C 349.098,155.068 343.431,158.735 337.5,162C 333.083,162.134 329.416,163.801 326.5,167C 320.339,168.663 315.006,171.496 310.5,175.5C 302.796,177.677 295.129,180.01 287.5,182.5C 287.5,183.5 287.5,184.5 287.5,185.5C 283.562,185.635 280.228,187.135 277.5,190C 272.355,190.669 268.022,192.835 264.5,196.5C 259.479,196.921 255.145,198.755 251.5,202C 240.931,206.994 230.264,211.994 219.5,217C 218.619,217.708 217.953,218.542 217.5,219.5C 214.912,221.625 211.912,222.958 208.5,223.5C 202.817,223.999 197.817,226.166 193.5,230C 188.877,231.638 184.211,233.305 179.5,235C 174.167,237.667 168.833,240.333 163.5,243C 161.808,244.307 160.475,245.807 159.5,247.5C 146.172,253.832 132.838,260.166 119.5,266.5C 113.446,267.556 107.446,268.889 101.5,270.5C 101.719,271.675 101.386,272.675 100.5,273.5C 92.322,277.388 83.9886,280.555 75.5,283C 73.7656,285.7 71.4323,287.7 68.5,289C 60.6952,292.654 52.8619,296.154 45,299.5C 43.6898,300.13 42.8565,301.13 42.5,302.5C 40.4727,302.338 38.4727,302.505 36.5,303C 32.9774,305.238 29.4774,307.405 26,309.5C 22.4702,309.75 19.6368,311.25 17.5,314C 15.5273,314.495 13.5273,314.662 11.5,314.5C 11.5,315.833 11.5,317.167 11.5,318.5C 10.5,318.5 9.5,318.5 8.5,318.5C 10.7905,306.457 13.6239,294.457 17,282.5C 19.3012,275.212 21.6346,267.879 24,260.5C 27.6892,254.083 29.5225,247.083 29.5,239.5C 30.5,239.5 31.5,239.5 32.5,239.5C 32.3347,235.818 32.5014,232.152 33,228.5C 33.6972,226.416 34.8639,224.749 36.5,223.5C 37.3195,220.695 37.8195,217.695 38,214.5C 41.1673,211.209 42.834,207.209 43,202.5C 43.2189,203.938 43.7189,205.271 44.5,206.5C 45.7741,203.633 46.6075,200.633 47,197.5C 47.2117,200.758 47.7117,203.924 48.5,207C 47.6919,207.308 47.0253,207.808 46.5,208.5C 46.7265,210.671 47.0598,212.838 47.5,215C 46.8333,215.333 46.1667,215.667 45.5,216C 46.7717,217.307 47.7717,218.807 48.5,220.5C 49.646,219.855 50.646,219.022 51.5,218C 52.9437,217.219 54.277,217.386 55.5,218.5C 53.0908,221.041 50.4242,222.374 47.5,222.5C 50.5355,222.998 53.0355,224.332 55,226.5C 55.624,228.464 55.124,230.131 53.5,231.5C 54.684,233.046 55.684,234.713 56.5,236.5C 57.5,235.833 58.5,235.167 59.5,234.5C 60.5,235.167 61.5,235.833 62.5,236.5C 63.4841,239.428 63.8174,242.428 63.5,245.5C 59.758,246.218 56.758,248.218 54.5,251.5C 53.5713,252.689 53.238,254.022 53.5,255.5C 58.8437,255.666 64.1771,255.499 69.5,255C 70.6817,253.322 71.8484,253.488 73,255.5C 75.4963,254.994 77.8296,254.994 80,255.5C 80.3333,256.833 80.6667,258.167 81,259.5C 81.5,259 82,258.5 82.5,258C 87.5329,257.829 92.5329,257.329 97.5,256.5C 96.1468,255.476 95.4802,254.143 95.5,252.5C 98.6573,252.437 101.491,251.437 104,249.5C 104.3,252.016 103.133,253.682 100.5,254.5C 103.317,257.535 105.317,257.035 106.5,253C 108.134,252.506 109.801,252.34 111.5,252.5C 111.5,250.833 111.5,249.167 111.5,247.5C 106.167,247.5 100.833,247.5 95.5,247.5C 95.1758,243.445 95.5091,239.445 96.5,235.5C 97.6074,234.978 98.7741,234.645 100,234.5C 102.086,235.418 104.253,236.085 106.5,236.5C 106.5,237.5 106.5,238.5 106.5,239.5C 108.39,239.297 109.89,239.963 111,241.5C 111.464,240.906 111.631,240.239 111.5,239.5C 115.167,239.5 118.833,239.5 122.5,239.5C 122.351,238.448 122.517,237.448 123,236.5C 125.268,235.24 127.434,233.906 129.5,232.5C 131.998,231.062 134.164,231.396 136,233.5C 136.186,231.1 136.686,228.766 137.5,226.5C 138.748,227.04 139.915,227.707 141,228.5C 142,227.5 143,226.5 144,225.5C 144.073,228.918 143.74,232.251 143,235.5C 146.449,233.086 148.449,229.753 149,225.5C 149.667,227.5 150.333,229.5 151,231.5C 151.494,229.866 151.66,228.199 151.5,226.5C 152.552,226.649 153.552,226.483 154.5,226C 152.559,224.097 150.226,223.264 147.5,223.5C 147.5,221.5 147.5,219.5 147.5,217.5C 151.589,219.429 155.089,218.762 158,215.5C 157.383,213.905 157.716,212.572 159,211.5C 159.49,212.793 159.657,214.127 159.5,215.5C 162.518,215.665 165.518,215.498 168.5,215C 167.259,213.513 167.759,212.68 170,212.5C 171.935,213.343 173.769,213.343 175.5,212.5C 173.085,210.991 172.919,209.324 175,207.5C 177.303,209.835 179.803,209.835 182.5,207.5C 184.879,203.137 188.546,200.47 193.5,199.5C 193.988,196.289 193.321,193.456 191.5,191C 192.708,188.75 194.041,186.583 195.5,184.5C 197.043,187.086 198.709,189.586 200.5,192C 202.813,192.662 205.146,193.162 207.5,193.5C 207.5,190.167 207.5,186.833 207.5,183.5C 202.167,183.5 196.833,183.5 191.5,183.5C 191.5,180.833 191.5,178.167 191.5,175.5C 196.511,175.666 201.511,175.499 206.5,175C 207.769,172.861 207.769,170.695 206.5,168.5C 204.051,168.02 201.885,167.02 200,165.5C 199.555,167.594 200.388,169.094 202.5,170C 201.234,170.309 200.067,170.809 199,171.5C 195.499,163.49 193.165,163.49 192,171.5C 191.5,170.5 191,169.5 190.5,168.5C 191.352,164.593 192.352,161.093 193.5,158C 193.37,156.941 192.87,156.108 192,155.5C 191.818,158.881 190.318,159.881 187.5,158.5C 188.025,157.808 188.692,157.308 189.5,157C 188.57,155.806 187.903,154.473 187.5,153C 188.406,151.248 189.406,149.414 190.5,147.5C 191.308,149.423 191.808,151.423 192,153.5C 192.5,152.333 193.333,151.5 194.5,151C 193.796,147.815 193.463,144.649 193.5,141.5C 194.167,140.833 194.833,140.167 195.5,139.5C 193.922,138.928 192.422,138.594 191,138.5C 190.033,139.678 189.533,141.011 189.5,142.5C 187.618,143.093 185.785,143.76 184,144.5C 182.303,143.043 180.803,141.377 179.5,139.5C 182.167,137.833 182.167,136.167 179.5,134.5C 181.848,133.14 182.015,131.473 180,129.5C 176.89,128.327 176.723,128.827 179.5,131C 178.216,131.684 177.049,131.517 176,130.5C 175.667,131.167 175.333,131.833 175,132.5C 174.768,131.263 174.268,130.263 173.5,129.5C 175.276,123.372 177.443,117.372 180,111.5C 180.155,106.057 181.322,100.891 183.5,96C 184.784,95.3162 185.951,95.4829 187,96.5C 187.333,98.1667 187.667,99.8333 188,101.5C 189.592,105.244 191.759,108.577 194.5,111.5C 196.792,116.759 199.125,122.093 201.5,127.5C 203.897,134.221 205.397,141.221 206,148.5C 207.356,149.38 208.856,149.714 210.5,149.5C 210.338,151.527 210.505,153.527 211,155.5C 211.71,156.973 212.876,157.64 214.5,157.5C 213.833,161.5 215.5,163.167 219.5,162.5C 219.5,163.833 219.5,165.167 219.5,166.5C 217.419,167.72 215.419,168.386 213.5,168.5C 215.998,170.814 218.998,171.98 222.5,172C 223.38,173.356 223.714,174.856 223.5,176.5C 230.167,177.5 230.167,178.5 223.5,179.5C 223.5,182.5 223.5,185.5 223.5,188.5C 226.901,186.478 230.568,184.812 234.5,183.5C 234.351,184.552 234.517,185.552 235,186.5C 234.893,183.443 236.06,181.109 238.5,179.5C 239.281,180.729 239.781,182.062 240,183.5C 242.333,180.833 244.667,178.167 247,175.5C 247.283,178.742 248.117,179.076 249.5,176.5C 255.09,176.77 259.423,174.603 262.5,170C 267.303,170.361 269.637,168.194 269.5,163.5C 264.833,163.5 260.167,163.5 255.5,163.5C 255.5,156.833 255.5,150.167 255.5,143.5C 260.833,143.5 266.167,143.5 271.5,143.5C 271.5,141.5 271.5,139.5 271.5,137.5C 274.144,137.16 276.477,137.827 278.5,139.5C 281.212,137.74 284.212,137.073 287.5,137.5C 287.917,140.079 287.25,142.246 285.5,144C 287.291,146.106 287.958,148.606 287.5,151.5C 282.067,150.636 276.734,150.636 271.5,151.5C 271.5,154.167 271.5,156.833 271.5,159.5C 276.975,160.081 282.142,159.414 287,157.5C 290.085,160.119 293.252,160.119 296.5,157.5C 297.086,157.709 297.586,158.043 298,158.5C 298.118,161.371 298.784,164.038 300,166.5C 300.595,165.101 300.428,163.768 299.5,162.5C 299.935,160.003 301.269,158.837 303.5,159C 302.72,160.073 302.887,161.24 304,162.5C 305.825,161.897 307.659,161.23 309.5,160.5C 306.237,158.905 303.237,156.905 300.5,154.5C 303.691,151.357 305.357,152.024 305.5,156.5C 308.91,156.616 310.244,154.95 309.5,151.5C 312.665,152.036 315.331,151.203 317.5,149C 315.5,148.167 313.5,147.333 311.5,146.5C 314.725,145.059 317.725,145.393 320.5,147.5C 324.277,145.663 324.277,143.996 320.5,142.5C 321.577,140.088 322.744,137.754 324,135.5C 325.509,138.329 325.675,141.162 324.5,144C 325.416,144.374 326.25,144.874 327,145.5C 328.097,143.947 329.43,142.614 331,141.5C 331.617,140.551 331.451,139.718 330.5,139C 332.568,138.313 334.568,138.48 336.5,139.5C 337.386,138.675 337.719,137.675 337.5,136.5C 335.801,136.66 334.134,136.494 332.5,136C 334.473,135.505 336.473,135.338 338.5,135.5C 338.196,132.478 337.696,129.478 337,126.5C 335.703,125.216 334.536,125.383 333.5,127C 328.845,127.499 324.179,127.666 319.5,127.5C 319.813,130.247 319.48,132.914 318.5,135.5C 317.304,135.154 317.304,134.654 318.5,134C 313.511,133.501 308.511,133.334 303.5,133.5C 303.162,130.843 303.829,128.51 305.5,126.5C 308.084,127.393 310.751,127.726 313.5,127.5C 314.081,122.025 313.414,116.858 311.5,112C 314.167,111.667 316.833,111.333 319.5,111C 318.167,108.667 316.833,106.333 315.5,104C 317.433,103.217 318.933,103.717 320,105.5C 320.833,104.667 321.667,103.833 322.5,103C 321.012,101.283 319.179,100.116 317,99.5C 316.788,96.2423 316.288,93.0757 315.5,90C 315.167,89.8333 314.833,89.6667 314.5,89.5C 313.92,91.6367 312.92,93.47 311.5,95C 312.956,95.4226 313.456,96.2559 313,97.5C 312.097,98.7014 310.931,99.5348 309.5,100C 306.953,100.067 304.786,100.901 303,102.5C 302.316,101.216 302.483,100.049 303.5,99C 305.577,98.8078 307.577,98.3078 309.5,97.5C 304.279,96.3756 304.279,95.5423 309.5,95C 308.207,94.51 306.873,94.3433 305.5,94.5C 305.5,93.1667 305.5,91.8333 305.5,90.5C 306.833,90.5 308.167,90.5 309.5,90.5C 309.256,87.7374 307.923,85.5707 305.5,84C 309.375,82.6532 309.375,81.4865 305.5,80.5C 306.967,80.277 308.467,79.9437 310,79.5C 309.954,77.6874 310.12,76.0207 310.5,74.5C 310.167,74.1667 309.833,73.8333 309.5,73.5C 308.131,75.124 306.464,75.624 304.5,75C 307.402,70.9489 309.735,66.6156 311.5,62C 309.423,58.9495 310.423,56.7828 314.5,55.5C 316.74,53.0393 317.073,50.3726 315.5,47.5C 313.833,47.5 312.167,47.5 310.5,47.5C 311.078,52.9316 309.578,57.5983 306,61.5C 305.667,64.5 305.333,67.5 305,70.5C 302.36,74.9349 300.527,79.6015 299.5,84.5C 299.5,81.8333 299.5,79.1667 299.5,76.5C 299.5,76.1667 299.5,75.8333 299.5,75.5C 300.85,74.5169 301.85,73.1836 302.5,71.5C 303.324,68.2152 303.824,64.8818 304,61.5C 305.582,60.0397 306.915,58.373 308,56.5C 308.377,48.0656 309.877,39.8989 312.5,32C 313.635,31.2506 314.635,31.4173 315.5,32.5C 317.681,36.2061 319.181,40.2061 320,44.5C 321.352,47.1067 322.852,49.44 324.5,51.5 Z"/></g>
<g><path style="opacity:0.678" fill="#80bea4" d="M 325.5,52.5 C 334.268,69.2735 342.601,86.2735 350.5,103.5C 349.504,103.586 348.671,103.252 348,102.5C 346.873,98.2504 345.207,94.2504 343,90.5C 339.183,87.8631 337.516,84.1964 338,79.5C 336.032,75.5887 333.699,71.922 331,68.5C 329.645,64.11 327.978,59.7766 326,55.5C 323.233,54.354 323.066,53.354 325.5,52.5 Z"/></g>
<g><path style="opacity:0.353" fill="#83bda0" d="M 258.5,79.5 C 256.461,78.3282 255.128,76.6616 254.5,74.5C 252.28,71.2351 251.114,67.5685 251,63.5C 250,62.1667 249,62.1667 248,63.5C 245.149,74.3431 241.816,85.0097 238,95.5C 236.915,100.437 236.248,105.437 236,110.5C 233.14,114.315 231.807,118.648 232,123.5C 231.051,125.093 229.885,126.426 228.5,127.5C 233.504,104.831 239.671,82.498 247,60.5C 248.851,58.2189 250.518,58.2189 252,60.5C 253.609,67.0456 255.776,73.3789 258.5,79.5 Z"/></g>
<g><path style="opacity:0.537" fill="#74ba98" d="M 194.5,111.5 C 191.759,108.577 189.592,105.244 188,101.5C 187.667,99.8333 187.333,98.1667 187,96.5C 185.951,95.4829 184.784,95.3162 183.5,96C 181.322,100.891 180.155,106.057 180,111.5C 177.443,117.372 175.276,123.372 173.5,129.5C 172.733,133.415 172.233,137.415 172,141.5C 171.29,142.973 170.124,143.64 168.5,143.5C 168.392,148.705 167.392,153.705 165.5,158.5C 165.185,163.303 163.518,167.636 160.5,171.5C 166.72,145.561 173.887,119.895 182,94.5C 183.577,91.3246 185.41,90.9912 187.5,93.5C 189.84,99.5112 192.174,105.511 194.5,111.5 Z"/></g>
<g><path style="opacity:1" fill="#33a774" d="M 219.5,162.5 C 222.28,160.542 224.114,157.875 225,154.5C 226.813,145.614 227.98,136.614 228.5,127.5C 229.885,126.426 231.051,125.093 232,123.5C 231.807,118.648 233.14,114.315 236,110.5C 236.248,105.437 236.915,100.437 238,95.5C 241.816,85.0097 245.149,74.3431 248,63.5C 249,62.1667 250,62.1667 251,63.5C 251.114,67.5685 252.28,71.2351 254.5,74.5C 256.742,78.7831 258.075,83.4497 258.5,88.5C 259.5,88.5 260.5,88.5 261.5,88.5C 260.894,91.9156 261.894,94.5822 264.5,96.5C 264.624,101.423 266.458,105.423 270,108.5C 270.892,111.952 272.558,114.952 275,117.5C 276.804,121.381 278.304,125.381 279.5,129.5C 282.621,131.037 285.287,130.537 287.5,128C 290.127,118.747 291.961,109.247 293,99.5C 293.667,98.8333 294.333,98.1667 295,97.5C 295.604,92.7889 297.104,88.4556 299.5,84.5C 300.527,79.6015 302.36,74.9349 305,70.5C 305.333,67.5 305.667,64.5 306,61.5C 309.578,57.5983 311.078,52.9316 310.5,47.5C 312.167,47.5 313.833,47.5 315.5,47.5C 317.073,50.3726 316.74,53.0393 314.5,55.5C 310.423,56.7828 309.423,58.9495 311.5,62C 309.735,66.6156 307.402,70.9489 304.5,75C 306.464,75.624 308.131,75.124 309.5,73.5C 309.833,73.8333 310.167,74.1667 310.5,74.5C 310.12,76.0207 309.954,77.6874 310,79.5C 308.467,79.9437 306.967,80.277 305.5,80.5C 309.375,81.4865 309.375,82.6532 305.5,84C 307.923,85.5707 309.256,87.7374 309.5,90.5C 308.167,90.5 306.833,90.5 305.5,90.5C 305.5,91.8333 305.5,93.1667 305.5,94.5C 306.873,94.3433 308.207,94.51 309.5,95C 304.279,95.5423 304.279,96.3756 309.5,97.5C 307.577,98.3078 305.577,98.8078 303.5,99C 302.483,100.049 302.316,101.216 303,102.5C 304.786,100.901 306.953,100.067 309.5,100C 310.931,99.5348 312.097,98.7014 313,97.5C 313.456,96.2559 312.956,95.4226 311.5,95C 312.92,93.47 313.92,91.6367 314.5,89.5C 314.833,89.6667 315.167,89.8333 315.5,90C 316.288,93.0757 316.788,96.2423 317,99.5C 319.179,100.116 321.012,101.283 322.5,103C 321.667,103.833 320.833,104.667 320,105.5C 318.933,103.717 317.433,103.217 315.5,104C 316.833,106.333 318.167,108.667 319.5,111C 316.833,111.333 314.167,111.667 311.5,112C 313.414,116.858 314.081,122.025 313.5,127.5C 310.751,127.726 308.084,127.393 305.5,126.5C 303.829,128.51 303.162,130.843 303.5,133.5C 308.511,133.334 313.511,133.501 318.5,134C 317.304,134.654 317.304,135.154 318.5,135.5C 319.48,132.914 319.813,130.247 319.5,127.5C 324.179,127.666 328.845,127.499 333.5,127C 334.536,125.383 335.703,125.216 337,126.5C 337.696,129.478 338.196,132.478 338.5,135.5C 336.473,135.338 334.473,135.505 332.5,136C 334.134,136.494 335.801,136.66 337.5,136.5C 337.719,137.675 337.386,138.675 336.5,139.5C 334.568,138.48 332.568,138.313 330.5,139C 331.451,139.718 331.617,140.551 331,141.5C 329.43,142.614 328.097,143.947 327,145.5C 326.25,144.874 325.416,144.374 324.5,144C 325.675,141.162 325.509,138.329 324,135.5C 322.744,137.754 321.577,140.088 320.5,142.5C 324.277,143.996 324.277,145.663 320.5,147.5C 317.725,145.393 314.725,145.059 311.5,146.5C 313.5,147.333 315.5,148.167 317.5,149C 315.331,151.203 312.665,152.036 309.5,151.5C 310.244,154.95 308.91,156.616 305.5,156.5C 305.357,152.024 303.691,151.357 300.5,154.5C 303.237,156.905 306.237,158.905 309.5,160.5C 307.659,161.23 305.825,161.897 304,162.5C 302.887,161.24 302.72,160.073 303.5,159C 301.269,158.837 299.935,160.003 299.5,162.5C 300.428,163.768 300.595,165.101 300,166.5C 298.784,164.038 298.118,161.371 298,158.5C 297.586,158.043 297.086,157.709 296.5,157.5C 293.252,160.119 290.085,160.119 287,157.5C 282.142,159.414 276.975,160.081 271.5,159.5C 271.5,156.833 271.5,154.167 271.5,151.5C 276.734,150.636 282.067,150.636 287.5,151.5C 287.958,148.606 287.291,146.106 285.5,144C 287.25,142.246 287.917,140.079 287.5,137.5C 284.212,137.073 281.212,137.74 278.5,139.5C 276.477,137.827 274.144,137.16 271.5,137.5C 271.5,139.5 271.5,141.5 271.5,143.5C 266.167,143.5 260.833,143.5 255.5,143.5C 255.5,150.167 255.5,156.833 255.5,163.5C 260.167,163.5 264.833,163.5 269.5,163.5C 269.637,168.194 267.303,170.361 262.5,170C 259.423,174.603 255.09,176.77 249.5,176.5C 248.117,179.076 247.283,178.742 247,175.5C 244.667,178.167 242.333,180.833 240,183.5C 239.781,182.062 239.281,180.729 238.5,179.5C 236.06,181.109 234.893,183.443 235,186.5C 234.517,185.552 234.351,184.552 234.5,183.5C 230.568,184.812 226.901,186.478 223.5,188.5C 223.5,185.5 223.5,182.5 223.5,179.5C 230.167,178.5 230.167,177.5 223.5,176.5C 223.714,174.856 223.38,173.356 222.5,172C 218.998,171.98 215.998,170.814 213.5,168.5C 215.419,168.386 217.419,167.72 219.5,166.5C 219.5,165.167 219.5,163.833 219.5,162.5 Z"/></g>
<g><path style="opacity:0.947" fill="#61b08b" d="M 254.5,74.5 C 255.128,76.6616 256.461,78.3282 258.5,79.5C 266.064,94.9656 273.397,110.632 280.5,126.5C 282.353,127.76 284.186,127.76 286,126.5C 288.809,109.248 293.309,92.5817 299.5,76.5C 299.5,79.1667 299.5,81.8333 299.5,84.5C 297.104,88.4556 295.604,92.7889 295,97.5C 294.333,98.1667 293.667,98.8333 293,99.5C 291.961,109.247 290.127,118.747 287.5,128C 285.287,130.537 282.621,131.037 279.5,129.5C 278.304,125.381 276.804,121.381 275,117.5C 272.558,114.952 270.892,111.952 270,108.5C 266.458,105.423 264.624,101.423 264.5,96.5C 261.894,94.5822 260.894,91.9156 261.5,88.5C 260.5,88.5 259.5,88.5 258.5,88.5C 258.075,83.4497 256.742,78.7831 254.5,74.5 Z"/></g>
<g><path style="opacity:0.455" fill="#7ab59b" d="M 350.5,103.5 C 354.66,111.162 358.327,119.162 361.5,127.5C 360.504,127.586 359.671,127.252 359,126.5C 357.408,122.971 356.074,119.305 355,115.5C 351.831,112.158 350.331,108.158 350.5,103.5 Z"/></g>
<g><path style="opacity:1" fill="#32a775" d="M 111.5,239.5 C 111.351,238.448 111.517,237.448 112,236.5C 117.585,233.246 117.418,231.246 111.5,230.5C 111.5,231.833 111.5,233.167 111.5,234.5C 110.5,234.5 109.5,234.5 108.5,234.5C 108.5,233.5 108.5,232.5 108.5,231.5C 105.111,231.632 101.777,231.799 98.5,232C 99.9733,231.29 100.64,230.124 100.5,228.5C 101.5,228.5 102.5,228.5 103.5,228.5C 103.244,226.208 103.577,224.041 104.5,222C 106.759,222.439 109.092,222.939 111.5,223.5C 111.5,224.5 111.5,225.5 111.5,226.5C 115.21,226.225 118.043,227.558 120,230.5C 120.667,228.5 120.667,226.5 120,224.5C 118.23,225.276 116.397,225.11 114.5,224C 114.957,223.586 115.291,223.086 115.5,222.5C 114.315,221.147 112.981,219.98 111.5,219C 114.198,219.484 116.865,220.317 119.5,221.5C 119.785,219.712 119.452,218.045 118.5,216.5C 116.884,215.885 115.551,214.885 114.5,213.5C 113.522,213.977 112.689,214.643 112,215.5C 107.36,214.953 102.86,214.953 98.5,215.5C 97.3384,210.869 97.1717,206.202 98,201.5C 100.187,196.929 101.687,192.095 102.5,187C 103.009,185.831 103.842,184.998 105,184.5C 105.179,181.447 105.679,178.447 106.5,175.5C 107.425,176.641 108.259,176.641 109,175.5C 109.231,171.416 109.898,167.416 111,163.5C 111.212,166.758 111.712,169.924 112.5,173C 110.475,174.194 110.141,175.694 111.5,177.5C 109.04,181.239 109.04,185.072 111.5,189C 111.245,190.326 110.578,191.326 109.5,192C 111.797,192.018 114.131,191.851 116.5,191.5C 116.5,192.5 116.5,193.5 116.5,194.5C 114.027,194.736 112.36,196.069 111.5,198.5C 112.427,200.491 112.594,202.491 112,204.5C 113.057,202.781 113.89,200.947 114.5,199C 115.672,198.647 116.838,198.813 118,199.5C 119.333,198.833 120.667,198.167 122,197.5C 123.732,197.734 124.566,198.734 124.5,200.5C 123.449,202.529 122.115,204.363 120.5,206C 120.667,206.5 120.833,207 121,207.5C 122.086,205.153 123.419,205.153 125,207.5C 125.5,207.167 126,206.833 126.5,206.5C 125.456,204.232 125.289,201.899 126,199.5C 126.333,200.167 126.667,200.833 127,201.5C 128.658,199.835 130.325,198.168 132,196.5C 135.286,198.597 138.786,198.93 142.5,197.5C 144.044,193.921 142.878,191.588 139,190.5C 138.517,189.552 138.351,188.552 138.5,187.5C 141.789,188.545 145.122,189.545 148.5,190.5C 148.291,191.086 147.957,191.586 147.5,192C 149.709,193.873 151.542,196.04 153,198.5C 157.604,197.064 160.77,194.064 162.5,189.5C 162.167,188.833 161.833,188.167 161.5,187.5C 163.419,181.704 164.586,175.704 165,169.5C 166.487,170.741 167.32,170.241 167.5,168C 166.131,164.988 165.464,161.821 165.5,158.5C 167.392,153.705 168.392,148.705 168.5,143.5C 170.124,143.64 171.29,142.973 172,141.5C 172.233,137.415 172.733,133.415 173.5,129.5C 174.268,130.263 174.768,131.263 175,132.5C 175.333,131.833 175.667,131.167 176,130.5C 177.049,131.517 178.216,131.684 179.5,131C 176.723,128.827 176.89,128.327 180,129.5C 182.015,131.473 181.848,133.14 179.5,134.5C 182.167,136.167 182.167,137.833 179.5,139.5C 180.803,141.377 182.303,143.043 184,144.5C 185.785,143.76 187.618,143.093 189.5,142.5C 189.533,141.011 190.033,139.678 191,138.5C 192.422,138.594 193.922,138.928 195.5,139.5C 194.833,140.167 194.167,140.833 193.5,141.5C 193.463,144.649 193.796,147.815 194.5,151C 193.333,151.5 192.5,152.333 192,153.5C 191.808,151.423 191.308,149.423 190.5,147.5C 189.406,149.414 188.406,151.248 187.5,153C 187.903,154.473 188.57,155.806 189.5,157C 188.692,157.308 188.025,157.808 187.5,158.5C 190.318,159.881 191.818,158.881 192,155.5C 192.87,156.108 193.37,156.941 193.5,158C 192.352,161.093 191.352,164.593 190.5,168.5C 191,169.5 191.5,170.5 192,171.5C 193.165,163.49 195.499,163.49 199,171.5C 200.067,170.809 201.234,170.309 202.5,170C 200.388,169.094 199.555,167.594 200,165.5C 201.885,167.02 204.051,168.02 206.5,168.5C 207.769,170.695 207.769,172.861 206.5,175C 201.511,175.499 196.511,175.666 191.5,175.5C 191.5,178.167 191.5,180.833 191.5,183.5C 196.833,183.5 202.167,183.5 207.5,183.5C 207.5,186.833 207.5,190.167 207.5,193.5C 205.146,193.162 202.813,192.662 200.5,192C 198.709,189.586 197.043,187.086 195.5,184.5C 194.041,186.583 192.708,188.75 191.5,191C 193.321,193.456 193.988,196.289 193.5,199.5C 188.546,200.47 184.879,203.137 182.5,207.5C 179.803,209.835 177.303,209.835 175,207.5C 172.919,209.324 173.085,210.991 175.5,212.5C 173.769,213.343 171.935,213.343 170,212.5C 167.759,212.68 167.259,213.513 168.5,215C 165.518,215.498 162.518,215.665 159.5,215.5C 159.657,214.127 159.49,212.793 159,211.5C 157.716,212.572 157.383,213.905 158,215.5C 155.089,218.762 151.589,219.429 147.5,217.5C 147.5,219.5 147.5,221.5 147.5,223.5C 150.226,223.264 152.559,224.097 154.5,226C 153.552,226.483 152.552,226.649 151.5,226.5C 151.66,228.199 151.494,229.866 151,231.5C 150.333,229.5 149.667,227.5 149,225.5C 148.449,229.753 146.449,233.086 143,235.5C 143.74,232.251 144.073,228.918 144,225.5C 143,226.5 142,227.5 141,228.5C 139.915,227.707 138.748,227.04 137.5,226.5C 136.686,228.766 136.186,231.1 136,233.5C 134.164,231.396 131.998,231.062 129.5,232.5C 127.434,233.906 125.268,235.24 123,236.5C 122.517,237.448 122.351,238.448 122.5,239.5C 118.833,239.5 115.167,239.5 111.5,239.5 Z"/></g>
<g><path style="opacity:0.941" fill="#5bb18a" d="M 201.5,127.5 C 206.28,137.732 211.113,148.066 216,158.5C 216.561,159.022 217.228,159.355 218,159.5C 219.819,157.874 221.152,155.874 222,153.5C 223.36,144.505 225.526,135.839 228.5,127.5C 227.98,136.614 226.813,145.614 225,154.5C 224.114,157.875 222.28,160.542 219.5,162.5C 215.5,163.167 213.833,161.5 214.5,157.5C 212.876,157.64 211.71,156.973 211,155.5C 210.505,153.527 210.338,151.527 210.5,149.5C 208.856,149.714 207.356,149.38 206,148.5C 205.397,141.221 203.897,134.221 201.5,127.5 Z"/></g>
<g><path style="opacity:0.635" fill="#6eb492" d="M 361.5,127.5 C 365.215,132.757 367.881,138.591 369.5,145C 369.241,146.261 368.574,147.261 367.5,148C 358.209,152.98 348.875,157.98 339.5,163C 329.811,167.179 320.145,171.346 310.5,175.5C 315.006,171.496 320.339,168.663 326.5,167C 329.416,163.801 333.083,162.134 337.5,162C 343.431,158.735 349.098,155.068 354.5,151C 358.671,149.739 362.671,148.239 366.5,146.5C 366.663,144.143 366.497,141.81 366,139.5C 362.931,136.185 361.431,132.185 361.5,127.5 Z"/></g>
<g><path style="opacity:0.671" fill="#7bbc9f" d="M 58.5,160.5 C 56.4325,159.737 54.7659,158.404 53.5,156.5C 52.914,156.709 52.414,157.043 52,157.5C 51.6667,161.167 51.3333,164.833 51,168.5C 49.9702,170.346 48.8036,172.013 47.5,173.5C 49.453,167.64 50.7863,161.64 51.5,155.5C 52.723,154.386 54.0563,154.219 55.5,155C 56.7577,156.741 57.7577,158.574 58.5,160.5 Z"/></g>
<g><path style="opacity:0.678" fill="#6aad90" d="M 310.5,175.5 C 295.525,182.983 280.192,189.983 264.5,196.5C 268.022,192.835 272.355,190.669 277.5,190C 280.228,187.135 283.562,185.635 287.5,185.5C 287.5,184.5 287.5,183.5 287.5,182.5C 295.129,180.01 302.796,177.677 310.5,175.5 Z"/></g>
<g><path style="opacity:0.757" fill="#70b697" d="M 154.5,189.5 C 155.043,189.56 155.376,189.893 155.5,190.5C 153.647,191.76 151.814,191.76 150,190.5C 143.654,176.543 136.987,162.876 130,149.5C 127.763,145.238 126.43,140.572 126,135.5C 123.587,132.938 121.92,129.938 121,126.5C 119.062,125.14 117.396,125.473 116,127.5C 113.771,135.96 112.271,144.626 111.5,153.5C 110.522,153.977 109.689,154.643 109,155.5C 108.667,159.5 108.333,163.5 108,167.5C 105.757,174.805 102.924,181.805 99.5,188.5C 105.151,167.989 110.318,147.323 115,126.5C 116.769,121.584 119.436,121.251 123,125.5C 131.632,147.421 141.298,168.754 152,189.5C 152.977,190.774 153.811,190.774 154.5,189.5 Z"/></g>
<g><path style="opacity:0.694" fill="#62ad89" d="M 264.5,196.5 C 258.669,200.137 252.669,203.637 246.5,207C 236.548,210.646 226.882,214.813 217.5,219.5C 217.953,218.542 218.619,217.708 219.5,217C 230.264,211.994 240.931,206.994 251.5,202C 255.145,198.755 259.479,196.921 264.5,196.5 Z"/></g>
<g><path style="opacity:0.686" fill="#80b79e" d="M 324.5,217.5 C 322.745,216.928 321.078,216.094 319.5,215C 317.167,214.333 314.833,214.333 312.5,215C 303.957,220.191 294.957,224.524 285.5,228C 284.378,231.409 284.211,234.909 285,238.5C 286.478,241.158 287.645,243.825 288.5,246.5C 289.919,250.015 290.586,253.681 290.5,257.5C 288.314,250.8 285.814,244.133 283,237.5C 282.176,234.118 282.343,230.784 283.5,227.5C 293.376,223.49 302.71,218.324 311.5,212C 317.122,210.789 321.456,212.623 324.5,217.5 Z"/></g>
<g><path style="opacity:1" fill="#35a573" d="M 324.5,217.5 C 326.5,218.833 328.167,220.5 329.5,222.5C 331.178,225.497 333.178,228.164 335.5,230.5C 333.432,229.259 331.265,228.259 329,227.5C 326.976,228.513 325.143,229.846 323.5,231.5C 322.232,230.572 320.899,230.405 319.5,231C 319.833,231.333 320.167,231.667 320.5,232C 318.913,232.862 317.246,233.529 315.5,234C 316.167,234.333 316.833,234.667 317.5,235C 315.968,235.7 314.968,236.866 314.5,238.5C 311.893,239.318 309.226,239.818 306.5,240C 308.715,240.17 310.715,240.837 312.5,242C 311.62,243.356 311.286,244.856 311.5,246.5C 314.168,246.334 316.502,245.334 318.5,243.5C 319.429,244.689 319.762,246.022 319.5,247.5C 316.203,247.329 315.869,247.995 318.5,249.5C 319.466,251.396 319.799,253.396 319.5,255.5C 318.167,255.5 316.833,255.5 315.5,255.5C 315.988,258.711 315.321,261.544 313.5,264C 313.833,265.667 314.167,267.333 314.5,269C 307.487,273.914 308.487,276.08 317.5,275.5C 318.654,273.077 319.821,270.744 321,268.5C 321.175,272.211 321.675,275.878 322.5,279.5C 325.713,279.722 327.546,281.388 328,284.5C 329.099,281.956 330.265,281.956 331.5,284.5C 330.092,285.243 328.759,286.077 327.5,287C 330.742,287.283 331.076,288.117 328.5,289.5C 326.176,289.123 325.509,288.123 326.5,286.5C 326,286.167 325.5,285.833 325,285.5C 323.629,286.581 322.129,287.415 320.5,288C 321.337,289.011 321.67,290.178 321.5,291.5C 320.022,291.238 318.689,291.571 317.5,292.5C 319.005,293.842 319.672,295.508 319.5,297.5C 324.593,297.612 324.593,298.445 319.5,300C 316.63,302.079 314.296,304.579 312.5,307.5C 311.757,306.092 310.923,304.759 310,303.5C 309.801,305.402 308.967,306.902 307.5,308C 308.731,309.183 308.731,310.349 307.5,311.5C 306.476,310.147 305.143,309.48 303.5,309.5C 304.322,312.682 304.322,315.682 303.5,318.5C 302.914,318.709 302.414,319.043 302,319.5C 300,318.167 298,316.833 296,315.5C 295.51,316.793 295.343,318.127 295.5,319.5C 290.307,320.364 290.307,321.697 295.5,323.5C 295,323.833 294.5,324.167 294,324.5C 291.901,323.713 289.734,323.38 287.5,323.5C 287.649,324.552 287.483,325.552 287,326.5C 285.805,323.193 284.972,323.027 284.5,326C 284.439,327.711 285.106,329.044 286.5,330C 285.531,331.758 284.364,332.258 283,331.5C 281.887,332.305 280.721,332.972 279.5,333.5C 277.955,330.891 276.288,330.891 274.5,333.5C 273.914,333.291 273.414,332.957 273,332.5C 272.915,334.085 272.749,335.418 272.5,336.5C 269.202,335.449 265.868,334.949 262.5,335C 263.833,336.333 263.833,337.667 262.5,339C 261.234,339.309 260.067,339.809 259,340.5C 257.989,339.663 256.822,339.33 255.5,339.5C 255.5,340.833 255.5,342.167 255.5,343.5C 253.42,344.044 251.42,344.878 249.5,346C 250.993,347.156 250.826,347.99 249,348.5C 247.85,347.576 246.85,347.576 246,348.5C 245.692,347.692 245.192,347.025 244.5,346.5C 243.281,347.263 242.281,348.263 241.5,349.5C 240.304,349.154 240.304,348.654 241.5,348C 240.5,347.5 239.5,347 238.5,346.5C 235.839,347.332 233.172,348.166 230.5,349C 213.268,351.208 196.602,349.208 180.5,343C 179.619,342.292 178.953,341.458 178.5,340.5C 186.672,342.36 194.672,344.86 202.5,348C 211.5,348.667 220.5,348.667 229.5,348C 232.274,347.376 234.274,345.876 235.5,343.5C 244.249,342.268 252.583,339.768 260.5,336C 265.556,330.72 270.723,325.553 276,320.5C 278.072,315.48 281.572,311.98 286.5,310C 285.424,308.274 285.257,306.441 286,304.5C 287.016,305.634 287.683,305.301 288,303.5C 288.004,297.8 289.337,292.467 292,287.5C 292.922,274.443 292.589,261.443 291,248.5C 290.292,247.619 289.458,246.953 288.5,246.5C 287.645,243.825 286.478,241.158 285,238.5C 284.211,234.909 284.378,231.409 285.5,228C 294.957,224.524 303.957,220.191 312.5,215C 314.833,214.333 317.167,214.333 319.5,215C 321.078,216.094 322.745,216.928 324.5,217.5 Z"/></g>
<g><path style="opacity:1" fill="#33a676" d="M 154.5,189.5 C 157.122,183.616 159.122,177.616 160.5,171.5C 163.518,167.636 165.185,163.303 165.5,158.5C 165.464,161.821 166.131,164.988 167.5,168C 167.32,170.241 166.487,170.741 165,169.5C 164.586,175.704 163.419,181.704 161.5,187.5C 161.833,188.167 162.167,188.833 162.5,189.5C 160.77,194.064 157.604,197.064 153,198.5C 151.542,196.04 149.709,193.873 147.5,192C 147.957,191.586 148.291,191.086 148.5,190.5C 145.122,189.545 141.789,188.545 138.5,187.5C 138.351,188.552 138.517,189.552 139,190.5C 142.878,191.588 144.044,193.921 142.5,197.5C 138.786,198.93 135.286,198.597 132,196.5C 130.325,198.168 128.658,199.835 127,201.5C 126.667,200.833 126.333,200.167 126,199.5C 125.289,201.899 125.456,204.232 126.5,206.5C 126,206.833 125.5,207.167 125,207.5C 123.419,205.153 122.086,205.153 121,207.5C 120.833,207 120.667,206.5 120.5,206C 122.115,204.363 123.449,202.529 124.5,200.5C 124.566,198.734 123.732,197.734 122,197.5C 120.667,198.167 119.333,198.833 118,199.5C 116.838,198.813 115.672,198.647 114.5,199C 113.89,200.947 113.057,202.781 112,204.5C 112.594,202.491 112.427,200.491 111.5,198.5C 112.36,196.069 114.027,194.736 116.5,194.5C 116.5,193.5 116.5,192.5 116.5,191.5C 114.131,191.851 111.797,192.018 109.5,192C 110.578,191.326 111.245,190.326 111.5,189C 109.04,185.072 109.04,181.239 111.5,177.5C 110.141,175.694 110.475,174.194 112.5,173C 111.712,169.924 111.212,166.758 111,163.5C 109.898,167.416 109.231,171.416 109,175.5C 108.259,176.641 107.425,176.641 106.5,175.5C 105.679,178.447 105.179,181.447 105,184.5C 103.842,184.998 103.009,185.831 102.5,187C 101.687,192.095 100.187,196.929 98,201.5C 97.1717,206.202 97.3384,210.869 98.5,215.5C 102.86,214.953 107.36,214.953 112,215.5C 112.689,214.643 113.522,213.977 114.5,213.5C 115.551,214.885 116.884,215.885 118.5,216.5C 119.452,218.045 119.785,219.712 119.5,221.5C 116.865,220.317 114.198,219.484 111.5,219C 112.981,219.98 114.315,221.147 115.5,222.5C 115.291,223.086 114.957,223.586 114.5,224C 116.397,225.11 118.23,225.276 120,224.5C 120.667,226.5 120.667,228.5 120,230.5C 118.043,227.558 115.21,226.225 111.5,226.5C 111.5,225.5 111.5,224.5 111.5,223.5C 109.092,222.939 106.759,222.439 104.5,222C 103.577,224.041 103.244,226.208 103.5,228.5C 102.5,228.5 101.5,228.5 100.5,228.5C 100.64,230.124 99.9733,231.29 98.5,232C 101.777,231.799 105.111,231.632 108.5,231.5C 108.5,232.5 108.5,233.5 108.5,234.5C 109.5,234.5 110.5,234.5 111.5,234.5C 111.5,233.167 111.5,231.833 111.5,230.5C 117.418,231.246 117.585,233.246 112,236.5C 111.517,237.448 111.351,238.448 111.5,239.5C 111.631,240.239 111.464,240.906 111,241.5C 109.89,239.963 108.39,239.297 106.5,239.5C 106.5,238.5 106.5,237.5 106.5,236.5C 104.253,236.085 102.086,235.418 100,234.5C 98.7741,234.645 97.6074,234.978 96.5,235.5C 95.5091,239.445 95.1758,243.445 95.5,247.5C 100.833,247.5 106.167,247.5 111.5,247.5C 111.5,249.167 111.5,250.833 111.5,252.5C 109.801,252.34 108.134,252.506 106.5,253C 105.317,257.035 103.317,257.535 100.5,254.5C 103.133,253.682 104.3,252.016 104,249.5C 101.491,251.437 98.6573,252.437 95.5,252.5C 95.4802,254.143 96.1468,255.476 97.5,256.5C 92.5329,257.329 87.5329,257.829 82.5,258C 82,258.5 81.5,259 81,259.5C 80.6667,258.167 80.3333,256.833 80,255.5C 77.8296,254.994 75.4963,254.994 73,255.5C 71.8484,253.488 70.6817,253.322 69.5,255C 64.1771,255.499 58.8437,255.666 53.5,255.5C 53.238,254.022 53.5713,252.689 54.5,251.5C 56.758,248.218 59.758,246.218 63.5,245.5C 63.8174,242.428 63.4841,239.428 62.5,236.5C 61.5,235.833 60.5,235.167 59.5,234.5C 58.5,235.167 57.5,235.833 56.5,236.5C 55.684,234.713 54.684,233.046 53.5,231.5C 55.124,230.131 55.624,228.464 55,226.5C 53.0355,224.332 50.5355,222.998 47.5,222.5C 50.4242,222.374 53.0908,221.041 55.5,218.5C 54.277,217.386 52.9437,217.219 51.5,218C 50.646,219.022 49.646,219.855 48.5,220.5C 47.7717,218.807 46.7717,217.307 45.5,216C 46.1667,215.667 46.8333,215.333 47.5,215C 47.0598,212.838 46.7265,210.671 46.5,208.5C 47.0253,207.808 47.6919,207.308 48.5,207C 47.7117,203.924 47.2117,200.758 47,197.5C 46.6075,200.633 45.7741,203.633 44.5,206.5C 43.7189,205.271 43.2189,203.938 43,202.5C 42.834,207.209 41.1673,211.209 38,214.5C 37.8195,217.695 37.3195,220.695 36.5,223.5C 36.335,220.15 36.5017,216.817 37,213.5C 39.3307,206.796 41.6641,200.13 44,193.5C 44.3333,190.833 44.6667,188.167 45,185.5C 45.6667,184.833 46.3333,184.167 47,183.5C 47.498,180.518 47.6646,177.518 47.5,174.5C 47.5,174.167 47.5,173.833 47.5,173.5C 48.8036,172.013 49.9702,170.346 51,168.5C 51.3333,164.833 51.6667,161.167 52,157.5C 52.414,157.043 52.914,156.709 53.5,156.5C 54.7659,158.404 56.4325,159.737 58.5,160.5C 58.4207,163.271 58.9207,165.937 60,168.5C 64.8186,178.152 69.4853,187.819 74,197.5C 74.4974,200.146 74.6641,202.813 74.5,205.5C 75.8333,205.5 77.1667,205.5 78.5,205.5C 78.5,208.167 78.5,210.833 78.5,213.5C 79.5,213.5 80.5,213.5 81.5,213.5C 81.5,216.167 81.5,218.833 81.5,221.5C 84.1403,221.553 86.6403,222.22 89,223.5C 90.3756,223.316 91.2089,222.649 91.5,221.5C 91.3359,218.813 91.5026,216.146 92,213.5C 93.9467,204.876 96.4467,196.543 99.5,188.5C 102.924,181.805 105.757,174.805 108,167.5C 108.333,163.5 108.667,159.5 109,155.5C 109.689,154.643 110.522,153.977 111.5,153.5C 112.271,144.626 113.771,135.96 116,127.5C 117.396,125.473 119.062,125.14 121,126.5C 121.92,129.938 123.587,132.938 126,135.5C 126.43,140.572 127.763,145.238 130,149.5C 136.987,162.876 143.654,176.543 150,190.5C 151.814,191.76 153.647,191.76 155.5,190.5C 155.376,189.893 155.043,189.56 154.5,189.5 Z"/></g>
<g><path style="opacity:0.994" fill="#56ab86" d="M 58.5,160.5 C 67.7521,181.007 77.5854,201.34 88,221.5C 89.1455,222.684 90.3121,222.684 91.5,221.5C 91.2089,222.649 90.3756,223.316 89,223.5C 86.6403,222.22 84.1403,221.553 81.5,221.5C 81.5,218.833 81.5,216.167 81.5,213.5C 80.5,213.5 79.5,213.5 78.5,213.5C 78.5,210.833 78.5,208.167 78.5,205.5C 77.1667,205.5 75.8333,205.5 74.5,205.5C 74.6641,202.813 74.4974,200.146 74,197.5C 69.4853,187.819 64.8186,178.152 60,168.5C 58.9207,165.937 58.4207,163.271 58.5,160.5 Z"/></g>
<g><path style="opacity:0.647" fill="#64ae8c" d="M 208.5,223.5 C 192.369,231.642 176.035,239.642 159.5,247.5C 160.475,245.807 161.808,244.307 163.5,243C 168.833,240.333 174.167,237.667 179.5,235C 184.211,233.305 188.877,231.638 193.5,230C 197.817,226.166 202.817,223.999 208.5,223.5 Z"/></g>
<g><path style="opacity:1" fill="#2fa573" d="M 335.5,230.5 C 339.753,233.41 343.753,236.744 347.5,240.5C 350.953,244.821 354.786,248.821 359,252.5C 359.112,255.447 360.612,256.78 363.5,256.5C 363.351,257.552 363.517,258.552 364,259.5C 367.982,262.482 370.815,266.316 372.5,271C 372.091,273.321 371.257,275.487 370,277.5C 366.678,280.988 363.178,284.321 359.5,287.5C 358.253,289.323 357.586,291.323 357.5,293.5C 353.976,293.929 350.976,295.429 348.5,298C 346.502,301.047 344.502,304.047 342.5,307C 338.005,309.999 334.005,313.499 330.5,317.5C 328.148,318.985 325.814,320.318 323.5,321.5C 323.5,322.833 323.5,324.167 323.5,325.5C 323.158,326.338 322.492,326.672 321.5,326.5C 321.44,325.957 321.107,325.624 320.5,325.5C 316.503,329.836 311.503,331.836 305.5,331.5C 304.416,336.046 301.416,338.212 296.5,338C 295.833,339.333 295.167,340.667 294.5,342C 292.5,342.333 290.5,342.667 288.5,343C 287.619,343.708 286.953,344.542 286.5,345.5C 280.938,345.362 275.272,346.028 269.5,347.5C 267.813,347.24 266.313,346.573 265,345.5C 264.409,344.517 264.743,343.85 266,343.5C 269.058,344.12 272.058,344.454 275,344.5C 275.5,344 276,343.5 276.5,343C 274.579,342.64 272.912,341.806 271.5,340.5C 272.103,339.365 272.436,338.365 272.5,337.5C 276.5,340.166 280.5,340.166 284.5,337.5C 282.922,336.702 281.256,336.202 279.5,336C 278.226,335.023 278.226,334.189 279.5,333.5C 280.721,332.972 281.887,332.305 283,331.5C 284.364,332.258 285.531,331.758 286.5,330C 285.106,329.044 284.439,327.711 284.5,326C 284.972,323.027 285.805,323.193 287,326.5C 287.483,325.552 287.649,324.552 287.5,323.5C 289.734,323.38 291.901,323.713 294,324.5C 294.5,324.167 295,323.833 295.5,323.5C 290.307,321.697 290.307,320.364 295.5,319.5C 295.343,318.127 295.51,316.793 296,315.5C 298,316.833 300,318.167 302,319.5C 302.414,319.043 302.914,318.709 303.5,318.5C 304.322,315.682 304.322,312.682 303.5,309.5C 305.143,309.48 306.476,310.147 307.5,311.5C 308.731,310.349 308.731,309.183 307.5,308C 308.967,306.902 309.801,305.402 310,303.5C 310.923,304.759 311.757,306.092 312.5,307.5C 314.296,304.579 316.63,302.079 319.5,300C 324.593,298.445 324.593,297.612 319.5,297.5C 319.672,295.508 319.005,293.842 317.5,292.5C 318.689,291.571 320.022,291.238 321.5,291.5C 321.67,290.178 321.337,289.011 320.5,288C 322.129,287.415 323.629,286.581 325,285.5C 325.5,285.833 326,286.167 326.5,286.5C 325.509,288.123 326.176,289.123 328.5,289.5C 331.076,288.117 330.742,287.283 327.5,287C 328.759,286.077 330.092,285.243 331.5,284.5C 330.265,281.956 329.099,281.956 328,284.5C 327.546,281.388 325.713,279.722 322.5,279.5C 321.675,275.878 321.175,272.211 321,268.5C 319.821,270.744 318.654,273.077 317.5,275.5C 308.487,276.08 307.487,273.914 314.5,269C 314.167,267.333 313.833,265.667 313.5,264C 315.321,261.544 315.988,258.711 315.5,255.5C 316.833,255.5 318.167,255.5 319.5,255.5C 319.799,253.396 319.466,251.396 318.5,249.5C 315.869,247.995 316.203,247.329 319.5,247.5C 319.762,246.022 319.429,244.689 318.5,243.5C 316.502,245.334 314.168,246.334 311.5,246.5C 311.286,244.856 311.62,243.356 312.5,242C 310.715,240.837 308.715,240.17 306.5,240C 309.226,239.818 311.893,239.318 314.5,238.5C 314.968,236.866 315.968,235.7 317.5,235C 316.833,234.667 316.167,234.333 315.5,234C 317.246,233.529 318.913,232.862 320.5,232C 320.167,231.667 319.833,231.333 319.5,231C 320.899,230.405 322.232,230.572 323.5,231.5C 325.143,229.846 326.976,228.513 329,227.5C 331.265,228.259 333.432,229.259 335.5,230.5 Z"/></g>
<g><path style="opacity:0.737" fill="#72b499" d="M 329.5,222.5 C 343.188,231.521 354.521,242.855 363.5,256.5C 360.612,256.78 359.112,255.447 359,252.5C 354.786,248.821 350.953,244.821 347.5,240.5C 343.753,236.744 339.753,233.41 335.5,230.5C 333.178,228.164 331.178,225.497 329.5,222.5 Z"/></g>
<g><path style="opacity:0.647" fill="#71b494" d="M 226.5,295.5 C 227.353,292.482 229.353,290.649 232.5,290C 237.873,284.741 240.207,278.241 239.5,270.5C 239.096,265.794 238.429,261.127 237.5,256.5C 235.809,254.744 233.809,254.244 231.5,255C 228.991,256.421 226.657,258.088 224.5,260C 221.607,260.631 218.774,261.464 216,262.5C 211.361,266.172 206.528,269.338 201.5,272C 194.171,272.345 191.337,276.178 193,283.5C 195.148,284.977 196.482,286.977 197,289.5C 199.195,291.688 201.695,293.521 204.5,295C 211.346,295.172 218.013,295.672 224.5,296.5C 216.367,298.139 208.367,297.639 200.5,295C 193.653,290.19 190.486,283.69 191,275.5C 192.167,274.333 193.333,273.167 194.5,272C 201.694,269.271 208.361,265.604 214.5,261C 221.469,258.673 227.969,255.506 234,251.5C 236.281,252.776 238.281,254.443 240,256.5C 240.395,260.019 241.395,263.352 243,266.5C 243.667,269.833 243.667,273.167 243,276.5C 240.848,285.814 235.348,292.147 226.5,295.5 Z"/></g>
<g><path style="opacity:1" fill="#2f9f6c" d="M 226.5,295.5 C 225.833,295.833 225.167,296.167 224.5,296.5C 218.013,295.672 211.346,295.172 204.5,295C 201.695,293.521 199.195,291.688 197,289.5C 196.482,286.977 195.148,284.977 193,283.5C 191.337,276.178 194.171,272.345 201.5,272C 206.528,269.338 211.361,266.172 216,262.5C 218.774,261.464 221.607,260.631 224.5,260C 226.657,258.088 228.991,256.421 231.5,255C 233.809,254.244 235.809,254.744 237.5,256.5C 238.429,261.127 239.096,265.794 239.5,270.5C 240.207,278.241 237.873,284.741 232.5,290C 229.353,290.649 227.353,292.482 226.5,295.5 Z"/></g>
<g><path style="opacity:0.565" fill="#63a98c" d="M 363.5,256.5 C 368.82,260.313 372.82,265.146 375.5,271C 374.87,274.296 373.37,277.13 371,279.5C 366.269,284.062 361.769,288.729 357.5,293.5C 357.586,291.323 358.253,289.323 359.5,287.5C 363.178,284.321 366.678,280.988 370,277.5C 371.257,275.487 372.091,273.321 372.5,271C 370.815,266.316 367.982,262.482 364,259.5C 363.517,258.552 363.351,257.552 363.5,256.5 Z"/></g>
<g><path style="opacity:0.412" fill="#78ba99" d="M 47.5,174.5 C 47.6646,177.518 47.498,180.518 47,183.5C 46.3333,184.167 45.6667,184.833 45,185.5C 44.6667,188.167 44.3333,190.833 44,193.5C 41.6641,200.13 39.3307,206.796 37,213.5C 36.5017,216.817 36.335,220.15 36.5,223.5C 34.8639,224.749 33.6972,226.416 33,228.5C 32.5014,232.152 32.3347,235.818 32.5,239.5C 31.5,239.5 30.5,239.5 29.5,239.5C 29.5225,247.083 27.6892,254.083 24,260.5C 21.6346,267.879 19.3012,275.212 17,282.5C 13.6239,294.457 10.7905,306.457 8.5,318.5C 9.5,318.5 10.5,318.5 11.5,318.5C 8.97093,319.905 7.30426,319.072 6.5,316C 16.5989,279.705 27.0989,243.538 38,207.5C 40.4076,196.19 43.5743,185.19 47.5,174.5 Z"/></g>
<g><path style="opacity:0.89" fill="#59af87" d="M 119.5,266.5 C 94.0816,278.87 68.4149,290.87 42.5,302.5C 42.8565,301.13 43.6898,300.13 45,299.5C 52.8619,296.154 60.6952,292.654 68.5,289C 71.4323,287.7 73.7656,285.7 75.5,283C 83.9886,280.555 92.322,277.388 100.5,273.5C 101.386,272.675 101.719,271.675 101.5,270.5C 107.446,268.889 113.446,267.556 119.5,266.5 Z"/></g>
<g><path style="opacity:0.696" fill="#6fb596" d="M 150.5,311.5 C 149.504,311.586 148.671,311.252 148,310.5C 147.572,306.36 145.572,303.36 142,301.5C 136.744,303.608 131.577,305.941 126.5,308.5C 125.702,308.043 125.369,307.376 125.5,306.5C 131.12,304.275 136.62,301.608 142,298.5C 143.982,298.99 145.649,299.99 147,301.5C 148.075,304.894 149.242,308.228 150.5,311.5 Z"/></g>
<g><path style="opacity:0.675" fill="#65b092" d="M 357.5,293.5 C 353.076,299.429 348.076,304.929 342.5,310C 336.002,315.001 329.669,320.167 323.5,325.5C 323.5,324.167 323.5,322.833 323.5,321.5C 325.814,320.318 328.148,318.985 330.5,317.5C 334.005,313.499 338.005,309.999 342.5,307C 344.502,304.047 346.502,301.047 348.5,298C 350.976,295.429 353.976,293.929 357.5,293.5 Z"/></g>
<g><path style="opacity:0.729" fill="#60b48c" d="M 42.5,302.5 C 32.3892,308.057 22.0559,313.39 11.5,318.5C 11.5,317.167 11.5,315.833 11.5,314.5C 13.5273,314.662 15.5273,314.495 17.5,314C 19.6368,311.25 22.4702,309.75 26,309.5C 29.4774,307.405 32.9774,305.238 36.5,303C 38.4727,302.505 40.4727,302.338 42.5,302.5 Z"/></g>
<g><path style="opacity:0.722" fill="#6eb395" d="M 150.5,311.5 C 153.521,314.366 156.021,317.7 158,321.5C 163.398,326.407 168.898,331.073 174.5,335.5C 169.812,334.311 165.812,331.811 162.5,328C 161.552,327.517 160.552,327.351 159.5,327.5C 159.649,326.448 159.483,325.448 159,324.5C 154.323,321.332 151.49,316.999 150.5,311.5 Z"/></g>
<g><path style="opacity:0.565" fill="#70b695" d="M 288.5,246.5 C 289.458,246.953 290.292,247.619 291,248.5C 292.589,261.443 292.922,274.443 292,287.5C 289.337,292.467 288.004,297.8 288,303.5C 287.683,305.301 287.016,305.634 286,304.5C 285.257,306.441 285.424,308.274 286.5,310C 281.572,311.98 278.072,315.48 276,320.5C 270.723,325.553 265.556,330.72 260.5,336C 252.583,339.768 244.249,342.268 235.5,343.5C 248.962,339.188 260.795,332.188 271,322.5C 274.667,318.167 278.333,313.833 282,309.5C 285.769,300.096 288.769,290.429 291,280.5C 291.691,272.805 291.525,265.139 290.5,257.5C 290.586,253.681 289.919,250.015 288.5,246.5 Z"/></g>
<g><path style="opacity:1" fill="#5baf88" d="M 321.5,326.5 C 309.416,336.213 296.083,343.879 281.5,349.5C 280.167,349.5 278.833,349.5 277.5,349.5C 280.187,347.677 283.187,346.343 286.5,345.5C 286.953,344.542 287.619,343.708 288.5,343C 290.5,342.667 292.5,342.333 294.5,342C 295.167,340.667 295.833,339.333 296.5,338C 301.416,338.212 304.416,336.046 305.5,331.5C 311.503,331.836 316.503,329.836 320.5,325.5C 321.107,325.624 321.44,325.957 321.5,326.5 Z"/></g>
<g><path style="opacity:0.71" fill="#6eb595" d="M 124.5,307.5 C 123.548,308.452 122.548,309.452 121.5,310.5C 116.649,313.156 111.649,315.656 106.5,318C 104.665,318.928 104.332,320.094 105.5,321.5C 108.975,323.808 112.308,326.308 115.5,329C 125.441,334.302 135.108,339.969 144.5,346C 147.636,346.315 150.303,347.482 152.5,349.5C 155.785,350.324 159.118,350.824 162.5,351C 164.836,353.833 167.836,355 171.5,354.5C 174.449,356.461 177.782,357.627 181.5,358C 203.471,360.68 225.471,361.013 247.5,359C 258.01,356.351 268.01,353.184 277.5,349.5C 278.833,349.5 280.167,349.5 281.5,349.5C 273.471,352.302 265.471,355.468 257.5,359C 230.509,363.507 203.509,363.507 176.5,359C 149.994,351.747 125.994,339.747 104.5,323C 103.018,320.408 103.352,318.075 105.5,316C 111.341,312.107 117.675,309.273 124.5,307.5 Z"/></g>
<g><path style="opacity:1" fill="#2d9f6c" d="M 150.5,311.5 C 151.49,316.999 154.323,321.332 159,324.5C 159.483,325.448 159.649,326.448 159.5,327.5C 160.552,327.351 161.552,327.517 162.5,328C 165.812,331.811 169.812,334.311 174.5,335.5C 175.136,337.795 176.469,339.461 178.5,340.5C 178.953,341.458 179.619,342.292 180.5,343C 196.602,349.208 213.268,351.208 230.5,349C 233.172,348.166 235.839,347.332 238.5,346.5C 239.5,347 240.5,347.5 241.5,348C 240.304,348.654 240.304,349.154 241.5,349.5C 242.281,348.263 243.281,347.263 244.5,346.5C 245.192,347.025 245.692,347.692 246,348.5C 246.85,347.576 247.85,347.576 249,348.5C 250.826,347.99 250.993,347.156 249.5,346C 251.42,344.878 253.42,344.044 255.5,343.5C 255.5,342.167 255.5,340.833 255.5,339.5C 256.822,339.33 257.989,339.663 259,340.5C 260.067,339.809 261.234,339.309 262.5,339C 263.833,337.667 263.833,336.333 262.5,335C 265.868,334.949 269.202,335.449 272.5,336.5C 272.749,335.418 272.915,334.085 273,332.5C 273.414,332.957 273.914,333.291 274.5,333.5C 276.288,330.891 277.955,330.891 279.5,333.5C 278.226,334.189 278.226,335.023 279.5,336C 281.256,336.202 282.922,336.702 284.5,337.5C 280.5,340.166 276.5,340.166 272.5,337.5C 272.436,338.365 272.103,339.365 271.5,340.5C 272.912,341.806 274.579,342.64 276.5,343C 276,343.5 275.5,344 275,344.5C 272.058,344.454 269.058,344.12 266,343.5C 264.743,343.85 264.409,344.517 265,345.5C 266.313,346.573 267.813,347.24 269.5,347.5C 275.272,346.028 280.938,345.362 286.5,345.5C 283.187,346.343 280.187,347.677 277.5,349.5C 273.833,349.5 270.167,349.5 266.5,349.5C 266.67,350.822 266.337,351.989 265.5,353C 260.167,353.333 254.833,353.667 249.5,354C 248.833,355 248.167,356 247.5,357C 229.15,358.547 210.817,358.547 192.5,357C 190.336,356.086 188.336,354.919 186.5,353.5C 181.565,354.448 176.565,354.781 171.5,354.5C 167.836,355 164.836,353.833 162.5,351C 159.118,350.824 155.785,350.324 152.5,349.5C 150.303,347.482 147.636,346.315 144.5,346C 135.108,339.969 125.441,334.302 115.5,329C 112.308,326.308 108.975,323.808 105.5,321.5C 104.332,320.094 104.665,318.928 106.5,318C 111.649,315.656 116.649,313.156 121.5,310.5C 122.548,309.452 123.548,308.452 124.5,307.5C 124.5,306.833 124.833,306.5 125.5,306.5C 125.369,307.376 125.702,308.043 126.5,308.5C 131.577,305.941 136.744,303.608 142,301.5C 145.572,303.36 147.572,306.36 148,310.5C 148.671,311.252 149.504,311.586 150.5,311.5 Z"/></g>
<g><path style="opacity:0.584" fill="#87bb9f" d="M 174.5,335.5 C 183.941,340.377 193.941,343.877 204.5,346C 212.833,346.667 221.167,346.667 229.5,346C 231.158,344.337 233.158,343.504 235.5,343.5C 234.274,345.876 232.274,347.376 229.5,348C 220.5,348.667 211.5,348.667 202.5,348C 194.672,344.86 186.672,342.36 178.5,340.5C 176.469,339.461 175.136,337.795 174.5,335.5 Z"/></g>
<g><path style="opacity:0.872" fill="#46a779" d="M 277.5,349.5 C 268.01,353.184 258.01,356.351 247.5,359C 225.471,361.013 203.471,360.68 181.5,358C 177.782,357.627 174.449,356.461 171.5,354.5C 176.565,354.781 181.565,354.448 186.5,353.5C 188.336,354.919 190.336,356.086 192.5,357C 210.817,358.547 229.15,358.547 247.5,357C 248.167,356 248.833,355 249.5,354C 254.833,353.667 260.167,353.333 265.5,353C 266.337,351.989 266.67,350.822 266.5,349.5C 270.167,349.5 273.833,349.5 277.5,349.5 Z"/></g>
</svg>
